<?xml version="1.0" encoding="UTF-8" standalone="no"?>
<!-- Created with Inkscape (http://www.inkscape.org/) -->

<svg
   xmlns:dc="http://purl.org/dc/elements/1.1/"
   xmlns:cc="http://creativecommons.org/ns#"
   xmlns:rdf="http://www.w3.org/1999/02/22-rdf-syntax-ns#"
   xmlns:svg="http://www.w3.org/2000/svg"
   xmlns="http://www.w3.org/2000/svg"
   xmlns:sodipodi="http://sodipodi.sourceforge.net/DTD/sodipodi-0.dtd"
   xmlns:inkscape="http://www.inkscape.org/namespaces/inkscape"
   width="8.5in"
   height="11in"
   viewBox="0 0 765 990"
   id="svg2"
   version="1.1"
   inkscape:version="0.91 r13725"
   sodipodi:docname="necklace back.svg">
  <defs
     id="defs4" />
  <sodipodi:namedview
     id="base"
     pagecolor="#ffffff"
     bordercolor="#666666"
     borderopacity="1.0"
     inkscape:pageopacity="0.0"
     inkscape:pageshadow="2"
     inkscape:zoom="1.4"
     inkscape:cx="225.87289"
     inkscape:cy="815.04045"
     inkscape:document-units="mm"
     inkscape:current-layer="layer1"
     showgrid="false"
     inkscape:window-width="1680"
     inkscape:window-height="988"
     inkscape:window-x="-8"
     inkscape:window-y="-8"
     inkscape:window-maximized="1"
     units="in" />
  <metadata
     id="metadata7">
    <rdf:RDF>
      <cc:Work
         rdf:about="">
        <dc:format>image/svg+xml</dc:format>
        <dc:type
           rdf:resource="http://purl.org/dc/dcmitype/StillImage" />
        <dc:title></dc:title>
      </cc:Work>
    </rdf:RDF>
  </metadata>
  <g
     inkscape:label="Layer 1"
     inkscape:groupmode="layer"
     id="layer1"
     transform="translate(0,-62.362205)">
    <path
       style="fill:none;fill-opacity:1;stroke:#000000;stroke-width:0.057;stroke-miterlimit:4;stroke-dasharray:none;stroke-opacity:1"
       d="m 59.504614,98.543413 a 49.542561,49.542561 0 0 0 -27.89063,44.519537 49.542561,49.542561 0 0 0 49.54297,49.54297 49.542561,49.542561 0 0 0 49.541026,-49.54297 49.542561,49.542561 0 0 0 -27.94922,-44.519537 l -43.244146,0 z"
       id="path4138-0-4"
       inkscape:connector-curvature="0" />
    <path
       style="fill:none;fill-opacity:1;stroke:#000000;stroke-width:0.09003289;stroke-miterlimit:4;stroke-dasharray:none;stroke-opacity:1"
       d="M 75.393494,63.896784 A 78.793564,78.793564 0 0 0 1.8837341,142.50225 78.793564,78.793564 0 0 0 75.393494,221.10967 l 0,-2.59766 c 0,-2.52147 2.02931,-4.55273 4.55078,-4.55273 l 1.46485,0 c 2.52147,0 4.55078,2.03126 4.55078,4.55273 l 0,2.51954 A 78.793564,78.793564 0 0 0 159.28216,147.7874 l -2.68554,0 c -2.52147,0 -4.55274,-2.03126 -4.55274,-4.55273 l 0,-1.46484 c 0,-2.52147 2.03127,-4.55078 4.55274,-4.55078 l 2.60351,0 A 78.793564,78.793564 0 0 0 85.959904,63.974909 l 0,2.166016 c 0,2.521471 -2.02931,4.552734 -4.55078,4.552734 l -1.46485,0 c -2.52147,0 -4.55078,-2.031263 -4.55078,-4.552734 l 0,-2.244141 z"
       id="path4138-2"
       inkscape:connector-curvature="0" />
    <circle
       style="fill:none;fill-opacity:1;stroke:#000000;stroke-width:0.06423695;stroke-miterlimit:4;stroke-dasharray:none;stroke-opacity:1"
       id="path4138-0-0"
       cx="80.67672"
       cy="142.50304"
       r="56.21788" />
  </g>
</svg>
